# xmcd
#
# Track frame offsets:
#	150
#	20022
#	38258
#	56394
#	83293
#	96351
#	115462
#	132201
#	147654
#	166703
#
# Disc length: 2540 seconds
#
# Revision: 0
# Processed by: cddbd v1.5.2PL0 Copyright (c) Steve Scherf et al.
# Submitted via: audiograbber 1.83.01
#
DISCID=7709ea0a
DTITLE=The Perumanta - Historia de Piedra
DYEAR=1993
DGENRE=Folklore
TTITLE0=HISTORIA DE PIEDRA
TTITLE1=SOLO TE PIDO
TTITLE2=SUSURRO
TTITLE3=YAMOR
TTITLE4=CANTUTITAY
TTITLE5=SAYA PRIMAVERA
TTITLE6=TEMPESTAD
TTITLE7=AY DIME TU
TTITLE8=JAKUCHIC
TTITLE9=TINKU AGUASCLARAS
EXTD=
EXTT0=
EXTT1=
EXTT2=
EXTT3=
EXTT4=
EXTT5=
EXTT6=
EXTT7=
EXTT8=
EXTT9=
PLAYORDER=
